<?xml version="1.0" encoding="UTF-8" standalone="no"?>
<!-- Created with Inkscape (http://www.inkscape.org/) -->
<svg
   xmlns:dc="http://purl.org/dc/elements/1.1/"
   xmlns:cc="http://creativecommons.org/ns#"
   xmlns:rdf="http://www.w3.org/1999/02/22-rdf-syntax-ns#"
   xmlns:svg="http://www.w3.org/2000/svg"
   xmlns="http://www.w3.org/2000/svg"
   xmlns:sodipodi="http://sodipodi.sourceforge.net/DTD/sodipodi-0.dtd"
   xmlns:inkscape="http://www.inkscape.org/namespaces/inkscape"
   width="64px"
   height="64px"
   id="svg2383"
   sodipodi:version="0.32"
   inkscape:version="0.46"
   sodipodi:docname="use.svg"
   inkscape:export-filename="C:\Development\emptycrategameengine\as-gameplayer\use.png"
   inkscape:export-xdpi="45"
   inkscape:export-ydpi="45"
   inkscape:output_extension="org.inkscape.output.svg.inkscape">
  <sodipodi:namedview
     id="base"
     pagecolor="#ffffff"
     bordercolor="#666666"
     borderopacity="1.0"
     inkscape:pageopacity="0.0"
     inkscape:pageshadow="2"
     inkscape:zoom="0.97"
     inkscape:cx="25.067364"
     inkscape:cy="32"
     inkscape:current-layer="layer1"
     showgrid="true"
     inkscape:document-units="px"
     inkscape:grid-bbox="true"
     inkscape:window-width="1024"
     inkscape:window-height="708"
     inkscape:window-x="-4"
     inkscape:window-y="-4" />
  <defs
     id="defs2385">
    <inkscape:perspective
       id="perspective2391"
       inkscape:persp3d-origin="32 : 21.333333 : 1"
       inkscape:vp_z="64 : 32 : 1"
       inkscape:vp_y="0 : 1000 : 0"
       inkscape:vp_x="0 : 32 : 1"
       sodipodi:type="inkscape:persp3d" />
  </defs>
  <metadata
     id="metadata2388">
    <rdf:RDF>
      <cc:Work
         rdf:about="">
        <dc:format>image/svg+xml</dc:format>
        <dc:type
           rdf:resource="http://purl.org/dc/dcmitype/StillImage" />
      </cc:Work>
    </rdf:RDF>
  </metadata>
  <g
     inkscape:groupmode="layer"
     inkscape:label="Layer 1"
     id="layer1">
    <g
       id="g3881"
       transform="matrix(1.1076962,0,0,1.1087639,-1.4302192,-1.6590213)">
      <path
         id="path3879"
         d="M 28.511204,3.8832885 C 28.380037,3.8972344 24.880307,9.2625291 24.753118,9.2974791 C 24.634032,9.3302021 19.449862,6.3131751 19.338928,6.3674471 C 19.220439,6.4254131 17.72669,12.724434 17.619126,12.800779 C 17.518415,12.872258 11.589958,11.82009 11.504275,11.90903 C 11.412758,12.004027 12.216211,18.361224 12.141239,18.469756 C 12.071046,18.571371 6.1401789,19.694496 6.090084,19.80738 C 6.036577,19.927948 8.9260564,25.603512 8.8927243,25.731142 C 8.8615202,25.850634 3.6780869,28.920145 3.6696219,29.043353 C 3.6605781,29.174951 8.3708217,33.561859 8.3831533,33.693188 C 8.3947002,33.816147 4.5271891,38.415437 4.5613711,38.534112 C 4.5978809,38.660867 10.492322,41.153865 10.54883,41.273056 C 10.601733,41.38465 8.5652292,47.096991 8.6379388,47.196818 C 8.7155995,47.303441 15.168496,47.613711 15.262361,47.706389 C 15.350242,47.793159 15.350982,53.816 15.453451,53.884937 C 15.562894,53.958568 21.703181,52.110153 21.823086,52.165135 C 21.935344,52.216616 23.996289,57.868078 24.116155,57.897809 C 24.244181,57.929567 29.398873,54.065366 29.530346,54.076026 C 29.653442,54.086008 33.547806,58.675224 33.67061,58.662165 C 33.801778,58.648219 37.301507,53.28292 37.428696,53.247974 C 37.547783,53.215251 42.79565,56.168584 42.906584,56.11431 C 43.025073,56.056343 44.455125,49.821019 44.562689,49.744673 C 44.663401,49.673195 50.591858,50.661667 50.677541,50.572726 C 50.769058,50.47773 49.965605,44.12053 50.040577,44.012 C 50.11077,43.910385 56.041638,42.850957 56.091732,42.738072 C 56.145239,42.617504 53.25576,36.878243 53.289092,36.750614 C 53.320296,36.631121 58.50373,33.625307 58.512195,33.502099 C 58.521238,33.370501 53.874691,28.983592 53.86236,28.852264 C 53.850813,28.729304 57.654627,24.066318 57.620445,23.947643 C 57.583936,23.820889 51.689494,21.32789 51.632987,21.208699 C 51.580083,21.097105 53.616587,15.448461 53.543878,15.348634 C 53.466217,15.242012 47.077017,14.868046 46.983152,14.775367 C 46.895271,14.688597 46.830835,8.6657561 46.728366,8.5968201 C 46.618922,8.5231891 40.478633,10.435302 40.358729,10.380317 C 40.246471,10.328836 38.185525,4.6773793 38.06566,4.6476448 C 37.937633,4.6158863 32.782942,8.4800871 32.651468,8.4694271 C 32.528372,8.4594451 28.634009,3.8702333 28.511204,3.8832885 z M 31.122755,26.240713 C 33.884445,26.240713 36.091072,28.511037 36.091072,31.272726 C 36.091074,34.034415 33.884445,36.241043 31.122755,36.241043 C 28.361066,36.241043 26.090742,34.034415 26.090742,31.272726 C 26.09074,28.511037 28.361066,26.240713 31.122755,26.240713 z"
         style="opacity:1;fill:#c0bfbf;fill-opacity:1;fill-rule:evenodd;stroke:#000000;stroke-width:1.11199999;stroke-linecap:round;stroke-linejoin:round;stroke-miterlimit:4;stroke-dasharray:none;stroke-opacity:1" />
      <path
         id="path3870"
         d="M 26.688762,2.0574133 C 26.557595,2.0713592 23.057865,7.436654 22.930676,7.471604 C 22.81159,7.504327 17.62742,4.4873 17.516486,4.541572 C 17.397997,4.599538 15.904248,10.898559 15.796684,10.974904 C 15.695973,11.046383 9.7675154,9.994215 9.6818321,10.083155 C 9.5903152,10.178152 10.393768,16.535349 10.318796,16.643881 C 10.248603,16.745496 4.3177355,17.868621 4.2676406,17.981505 C 4.2141336,18.102074 7.103613,23.777638 7.0702809,23.905268 C 7.0390768,24.02476 1.8556435,27.094271 1.8471785,27.217479 C 1.8381347,27.349077 6.5483783,31.735985 6.5607099,31.867314 C 6.5722568,31.990273 2.7047457,36.589563 2.7389277,36.708238 C 2.7754375,36.834993 8.6698792,39.327991 8.7263865,39.447182 C 8.7792902,39.558776 6.7427858,45.271117 6.8154954,45.370944 C 6.8931561,45.477567 13.346053,45.787837 13.439918,45.880515 C 13.527799,45.967285 13.528539,51.990126 13.631008,52.059063 C 13.740451,52.132694 19.880739,50.284279 20.000644,50.339261 C 20.112902,50.390742 22.173847,56.042204 22.293713,56.071935 C 22.421739,56.103693 27.576431,52.239492 27.707904,52.250152 C 27.831,52.260134 31.725364,56.84935 31.848168,56.836291 C 31.979336,56.822345 35.479065,51.457046 35.606254,51.4221 C 35.725341,51.389377 40.973208,54.34271 41.084142,54.288436 C 41.202631,54.230469 42.632683,47.995145 42.740247,47.918799 C 42.840959,47.847321 48.769416,48.835793 48.855099,48.746852 C 48.946616,48.651856 48.143163,42.294656 48.218135,42.186126 C 48.288328,42.084511 54.219196,41.025083 54.26929,40.912198 C 54.322797,40.79163 51.433318,35.052369 51.46665,34.92474 C 51.497854,34.805247 56.681288,31.799433 56.689753,31.676225 C 56.698796,31.544627 52.052249,27.157718 52.039918,27.02639 C 52.028371,26.90343 55.832185,22.240444 55.798003,22.121769 C 55.761494,21.995015 49.867052,19.502016 49.810545,19.382825 C 49.757641,19.271231 51.794145,13.622586 51.721436,13.522759 C 51.643775,13.416137 45.254575,13.042171 45.16071,12.949492 C 45.072829,12.862722 45.008393,6.839881 44.905924,6.770945 C 44.79648,6.697314 38.656191,8.609427 38.536287,8.554442 C 38.424029,8.502961 36.363083,2.8515042 36.243218,2.8217697 C 36.115191,2.7900112 30.9605,6.654212 30.829026,6.643552 C 30.70593,6.63357 26.811567,2.0443581 26.688762,2.0574133 z M 29.300313,24.414839 C 32.062003,24.414839 34.26863,26.685163 34.26863,29.446852 C 34.268632,32.208541 32.062003,34.415169 29.300313,34.415169 C 26.538624,34.415169 24.2683,32.208541 24.2683,29.446852 C 24.268298,26.685163 26.538624,24.414839 29.300313,24.414839 z"
         style="opacity:1;fill:#c0bfbf;fill-opacity:1;fill-rule:evenodd;stroke:#000000;stroke-width:1.11199999;stroke-linecap:round;stroke-linejoin:round;stroke-miterlimit:4;stroke-dasharray:none;stroke-opacity:1" />
    </g>
  </g>
</svg>
